<svg version="1.0" xmlns="http://www.w3.org/2000/svg"
 width="3245.000000pt" height="2295.000000pt" viewBox="0 0 3245.000000 2295.000000"
 preserveAspectRatio="xMidYMid meet">

<g transform="translate(0.000000,2295.000000) scale(0.100000,-0.100000)"
fill="#000000" stroke="none">
<path d="M0 11475 l0 -11475 16225 0 16225 0 0 11475 0 11475 -16225 0 -16225
0 0 -11475z m23368 9459 c107 -75 65 -383 -96 -705 -147 -292 -348 -477 -437
-401 -36 29 -45 47 -56 107 -33 179 93 551 269 797 64 89 152 175 206 202 40
20 86 20 114 0z m-3136 -1264 c808 -54 1579 -342 2232 -833 841 -633 1456
-1570 1791 -2727 29 -102 60 -214 69 -250 8 -36 24 -103 35 -150 40 -166 87
-428 121 -674 35 -250 50 -424 57 -668 3 -131 8 -238 11 -238 23 0 314 86 342
101 8 5 38 18 65 30 114 49 205 99 285 156 13 10 37 23 52 30 16 7 31 19 34
28 4 9 18 22 33 30 14 7 46 32 69 54 24 23 47 41 52 41 5 0 25 22 45 49 20 28
44 52 53 55 9 3 33 29 52 58 19 28 61 82 92 120 31 38 80 108 109 156 67 112
186 230 276 273 78 37 172 53 227 38 56 -15 176 -70 176 -80 0 -5 13 -17 28
-27 37 -22 144 -141 186 -206 102 -157 181 -327 206 -446 28 -128 30 -152 14
-189 -22 -55 -95 -158 -121 -172 -13 -7 -34 -27 -47 -44 -34 -44 -180 -139
-269 -174 -46 -18 -108 -34 -163 -40 -85 -9 -93 -8 -191 21 -98 30 -103 30
-128 14 -62 -41 -66 -137 -14 -331 13 -49 102 -233 138 -284 10 -14 20 -33 23
-41 8 -21 145 -187 193 -235 41 -40 144 -132 200 -178 38 -30 201 -137 211
-137 4 0 43 -21 86 -46 117 -69 331 -146 508 -184 52 -11 127 -29 165 -40 39
-12 105 -25 147 -30 42 -6 89 -15 105 -21 15 -6 62 -15 103 -19 41 -5 116 -14
165 -21 50 -6 115 -13 145 -14 30 -2 91 -6 135 -10 102 -8 395 -9 550 -2 113
6 489 52 505 62 4 3 41 12 81 20 71 15 192 48 234 65 216 84 246 90 408 76 60
-6 212 -53 279 -87 86 -44 219 -138 273 -193 169 -174 239 -315 251 -502 4
-70 1 -104 -10 -139 -9 -25 -16 -60 -16 -78 0 -18 -7 -50 -15 -72 -8 -22 -14
-57 -15 -78 0 -21 -9 -55 -20 -76 -10 -21 -24 -67 -29 -101 -20 -123 -125
-269 -242 -336 -89 -52 -165 -68 -319 -68 -168 0 -300 18 -440 62 -52 17 -135
42 -185 57 -102 30 -248 83 -344 125 -36 16 -154 63 -261 104 -107 41 -238 93
-290 116 -103 45 -294 121 -375 150 -27 10 -120 42 -205 73 -498 177 -620 218
-805 267 -66 18 -183 52 -260 76 -77 24 -171 48 -210 55 -38 6 -114 24 -169
40 -54 16 -113 29 -131 29 -17 0 -67 9 -110 20 -43 11 -95 20 -114 20 -20 0
-61 6 -91 14 -71 17 -162 28 -370 42 -281 19 -575 -17 -760 -93 -36 -14 -77
-35 -92 -45 -14 -10 -29 -18 -33 -18 -21 0 -220 -180 -253 -228 -15 -23 -45
-60 -68 -84 -61 -65 -88 -109 -224 -374 -37 -73 -73 -156 -80 -185 -7 -30 -28
-89 -47 -132 -19 -43 -38 -101 -43 -130 -4 -29 -17 -75 -28 -102 -11 -28 -20
-66 -20 -85 0 -19 -6 -48 -13 -65 -39 -95 -72 -556 -54 -750 10 -103 10 -105
24 -170 43 -199 116 -349 218 -447 98 -94 202 -182 237 -200 12 -6 31 -20 44
-31 12 -12 42 -33 66 -47 24 -14 56 -33 72 -43 186 -115 411 -211 684 -292
158 -47 246 -59 440 -60 110 0 162 -4 179 -14 125 -71 254 -230 312 -386 12
-33 25 -64 29 -70 24 -34 63 -286 49 -322 -4 -12 -7 -40 -6 -62 1 -32 -10 -64
-49 -139 -43 -82 -61 -105 -115 -149 -35 -29 -67 -53 -71 -53 -4 0 -37 -21
-74 -46 -36 -25 -74 -48 -83 -51 -9 -3 -23 -12 -32 -20 -26 -22 -168 -93 -274
-136 -123 -50 -197 -66 -341 -73 -104 -6 -118 -4 -195 21 -150 50 -211 87
-318 193 -157 157 -253 309 -409 652 -157 345 -271 568 -386 750 -139 222
-364 466 -520 565 -18 11 -48 32 -67 47 -19 15 -69 43 -109 63 -41 20 -95 47
-120 60 -63 33 -222 83 -319 100 -45 8 -86 17 -92 21 -12 7 -162 22 -319 31
-158 9 -852 8 -975 -1 -55 -4 -112 -8 -127 -9 -28 -2 -883 -633 -1298 -958
-1004 -786 -1945 -1742 -2726 -2769 -512 -673 -899 -1336 -979 -1680 -10 -41
-19 -81 -21 -87 -5 -19 -24 -16 -30 5 -22 70 -144 278 -255 433 -415 580
-1136 1279 -1969 1910 -189 144 -535 389 -547 389 -15 -1 -69 -87 -110 -175
-8 -16 -20 -41 -28 -55 -8 -14 -26 -47 -40 -73 -15 -27 -48 -70 -74 -95 -26
-26 -59 -65 -73 -87 -44 -70 -254 -281 -316 -316 -244 -142 -352 -185 -478
-194 -48 -3 -90 -8 -94 -10 -4 -2 -31 2 -61 10 -30 8 -99 15 -153 15 -99 0
-128 6 -301 60 -33 10 -81 22 -108 26 -26 3 -57 14 -70 24 -12 9 -33 21 -47
25 -14 4 -36 16 -49 26 -13 11 -30 19 -38 19 -26 0 -117 67 -193 141 -104 103
-155 204 -170 340 -10 95 -9 97 24 195 41 119 111 250 165 309 22 24 51 66 65
93 14 28 30 53 35 56 5 4 17 28 25 54 9 26 32 66 50 90 24 30 46 78 71 160 20
64 45 137 56 162 18 44 25 86 34 202 4 51 2 59 -18 72 -12 8 -238 118 -502
244 -264 126 -561 269 -660 318 l-180 88 -195 7 c-144 5 -207 11 -241 23 -101
37 -179 140 -179 237 0 55 -3 58 -130 130 -52 29 -158 91 -235 137 -125 74
-144 82 -175 76 -19 -3 -89 -10 -155 -14 -211 -15 -344 -47 -430 -105 -20 -14
-40 -25 -46 -25 -5 0 -36 -25 -69 -55 -33 -30 -64 -55 -69 -55 -5 0 -23 -11
-39 -25 -17 -14 -48 -31 -69 -39 -22 -8 -71 -37 -109 -64 -38 -28 -127 -82
-199 -120 -147 -78 -273 -159 -331 -213 -22 -21 -307 -169 -325 -169 -6 0 -45
-14 -87 -31 -105 -42 -283 -74 -402 -73 -166 2 -282 13 -306 29 -13 8 -30 15
-37 15 -8 0 -23 8 -35 17 -11 10 -33 28 -49 41 -15 12 -42 33 -59 47 -21 16
-44 53 -67 107 -35 82 -47 141 -77 383 -22 175 -78 367 -125 430 -14 17 -25
36 -25 41 -1 5 -11 22 -24 38 -43 51 -180 67 -255 28 -23 -12 -47 -22 -53 -22
-6 0 -29 -16 -52 -35 -22 -19 -65 -54 -94 -77 -29 -24 -71 -59 -95 -79 -23
-20 -68 -52 -99 -72 -52 -33 -199 -163 -383 -338 -62 -60 -150 -128 -270 -210
-22 -15 -49 -37 -59 -48 -11 -12 -24 -21 -31 -21 -6 0 -22 -11 -34 -24 -12
-13 -40 -31 -61 -41 -34 -16 -45 -16 -84 -5 -52 14 -76 42 -135 152 -61 114
-113 291 -127 433 -7 75 -4 299 6 334 5 21 11 58 11 82 2 58 23 150 43 186 8
15 34 78 57 138 29 76 55 125 84 160 23 28 50 66 60 85 10 19 34 60 55 90 20
30 52 78 71 107 34 50 306 317 385 378 98 76 256 160 329 175 22 5 65 15 95
24 33 9 100 16 165 17 61 1 137 8 170 17 33 8 83 16 110 18 132 7 287 49 374
102 25 15 57 32 71 38 24 11 117 104 207 207 44 50 51 65 107 247 41 133 44
172 51 566 5 293 3 319 -43 529 -47 210 -70 370 -99 680 -22 243 -25 329 -25
655 1 553 36 915 133 1390 69 332 175 690 291 980 117 291 303 643 480 910
759 1137 1956 1829 3268 1889 1041 48 2079 -296 2960 -981 612 -476 1169
-1134 1581 -1868 30 -52 50 -79 53 -70 289 820 615 1412 1096 1990 130 156
448 475 600 601 404 336 803 579 1248 758 441 178 855 274 1357 314 96 8 396
6 537 -3z m-18097 -6965 c55 -9 116 -23 135 -32 19 -9 73 -19 120 -24 47 -5
108 -15 135 -22 28 -8 111 -31 185 -51 365 -99 493 -147 588 -223 58 -47 56
-92 -7 -150 -37 -35 -229 -126 -341 -164 -52 -17 -100 -35 -105 -40 -25 -19
-208 -53 -325 -59 -69 -4 -163 -14 -210 -24 -81 -17 -104 -17 -220 -1 -66 9
-183 72 -244 131 -55 52 -128 159 -141 204 -3 14 -13 39 -20 55 -8 17 -21 63
-30 104 -28 122 -5 207 68 255 23 14 51 26 63 26 12 0 27 7 34 15 10 12 31 15
87 14 41 -1 77 2 81 5 3 4 16 5 27 2 11 -3 65 -12 120 -21z m4639 -5361 c103
-27 186 -102 186 -169 0 -115 -148 -179 -328 -140 -89 19 -149 53 -187 105
-46 63 -26 148 46 188 76 44 157 48 283 16z m-3485 -353 c37 -37 46 -92 29
-179 -17 -86 -143 -357 -223 -478 -44 -67 -115 -205 -210 -409 -25 -55 -50
-107 -55 -115 -6 -8 -16 -28 -25 -45 -8 -16 -35 -66 -60 -110 -25 -44 -57
-102 -70 -130 -14 -27 -47 -81 -74 -120 -28 -38 -53 -81 -56 -95 -4 -14 -21
-61 -40 -105 -18 -44 -47 -120 -65 -170 -36 -101 -66 -147 -107 -164 -15 -7
-50 -41 -78 -77 -49 -64 -51 -65 -89 -60 -22 2 -58 -2 -82 -10 -43 -14 -84 -8
-99 15 -3 6 -19 11 -34 11 -25 0 -101 45 -211 125 -49 36 -224 207 -307 301
-85 96 -93 106 -230 309 -45 67 -73 164 -73 256 0 74 1 76 55 157 30 46 55 88
55 95 0 24 31 56 81 84 32 17 67 48 93 83 28 36 63 67 103 90 34 19 94 55 133
79 71 42 98 53 171 65 36 6 69 28 154 101 78 67 144 103 535 293 69 34 139 64
155 68 17 4 56 20 87 36 148 75 300 116 431 117 73 1 90 -2 106 -18z m21615
-757 c77 -14 95 -22 140 -58 28 -23 60 -58 71 -78 18 -33 18 -41 7 -85 -18
-65 -34 -87 -86 -118 -70 -41 -149 -50 -264 -31 -109 18 -153 43 -210 117 -38
48 -39 74 -4 151 15 34 30 49 73 72 88 48 140 54 273 30z"/>
<path d="M13553 17576 c-100 -12 -185 -24 -187 -27 -4 -4 -76 -417 -76 -434 0
-1 -61 -8 -135 -15 -74 -7 -135 -15 -135 -19 0 -3 -7 -82 -15 -175 -8 -94 -13
-172 -11 -174 2 -2 57 2 121 8 64 6 119 10 121 7 2 -2 -12 -141 -33 -308 -28
-234 -37 -343 -37 -475 l-1 -171 35 -69 c94 -185 319 -234 695 -152 49 10 93
22 96 26 6 7 29 251 29 311 0 26 -3 32 -15 27 -35 -13 -202 -27 -252 -21 -105
13 -126 58 -112 237 34 459 51 633 59 638 6 4 86 12 178 19 92 8 174 17 183
22 13 7 18 33 24 126 4 65 11 141 15 168 5 28 5 53 2 56 -4 3 -86 -1 -182 -11
-96 -9 -178 -14 -181 -11 -3 3 2 101 11 216 10 116 16 213 13 218 -2 4 -10 6
-16 6 -7 -1 -94 -11 -194 -23z"/>
<path d="M10075 17388 c-115 -10 -215 -20 -220 -22 -11 -4 -51 -434 -41 -443
7 -8 469 36 477 45 3 4 11 84 18 177 7 94 15 191 18 218 5 45 4 47 -18 46 -13
-1 -118 -10 -234 -21z"/>
<path d="M8811 17244 c-376 -35 -685 -65 -687 -67 -4 -4 -54 -593 -129 -1527
-19 -239 -39 -468 -43 -509 -7 -57 -5 -74 5 -78 16 -6 495 37 505 46 4 3 22
191 39 416 18 226 34 412 36 415 2 2 182 20 401 40 l396 36 7 34 c10 50 33
360 27 365 -3 3 -185 -11 -406 -32 -221 -20 -405 -34 -408 -31 -7 8 28 445 37
459 4 6 202 29 484 54 263 24 479 45 480 47 3 3 35 363 35 388 0 16 -47 12
-779 -56z"/>
<path d="M12135 17040 c-306 -43 -509 -215 -547 -462 -22 -147 17 -295 100
-381 92 -94 207 -139 416 -162 300 -32 335 -42 363 -99 32 -69 -12 -152 -104
-197 -64 -31 -221 -38 -313 -15 -92 24 -137 56 -165 120 l-23 53 -194 -40
c-106 -21 -194 -40 -196 -42 -2 -2 11 -38 29 -82 55 -131 164 -227 317 -277
121 -40 198 -49 365 -43 126 4 167 9 240 31 205 61 343 166 421 321 34 69 45
125 46 227 0 259 -161 416 -465 452 -27 3 -108 11 -178 16 -158 12 -210 31
-233 86 -40 94 52 189 194 201 83 7 181 -16 236 -55 33 -22 73 -79 88 -122 3
-9 69 8 281 71 42 12 67 25 67 34 0 8 -15 45 -32 82 -58 122 -191 224 -343
263 -91 23 -278 33 -370 20z"/>
<path d="M11394 16955 c-158 -34 -256 -132 -339 -339 -8 -22 -17 -37 -19 -35
-2 2 2 76 10 163 7 88 12 161 10 163 -3 4 -440 -37 -444 -42 -2 -2 -16 -167
-33 -366 -16 -200 -36 -449 -44 -554 -9 -104 -24 -293 -34 -420 -11 -126 -17
-232 -16 -234 7 -6 468 38 476 46 4 4 17 127 28 273 37 456 54 552 123 682 37
69 108 142 169 173 25 13 77 30 115 38 l69 14 8 139 c9 169 6 307 -8 310 -5 1
-37 -4 -71 -11z"/>
<path d="M10030 16818 c-118 -11 -219 -23 -223 -27 -9 -9 -19 -119 -87 -961
-27 -333 -45 -608 -42 -611 8 -6 468 34 476 41 2 3 16 151 30 330 50 630 96
1205 99 1225 3 26 2 26 -253 3z"/>
<path d="M19550 15760 c-196 -19 -726 -68 -1125 -104 l-240 -21 3 -45 c1 -25
5 -62 8 -82 6 -38 6 -38 54 -38 61 0 189 -17 256 -35 101 -26 196 -89 248
-163 29 -42 54 -168 40 -201 -4 -9 -8 -37 -9 -63 -1 -26 -8 -54 -15 -62 -7 -9
-10 -23 -6 -32 7 -17 -28 -172 -50 -221 -8 -17 -14 -35 -13 -40 1 -4 -1 -15
-4 -23 -3 -8 -14 -42 -23 -75 -9 -33 -19 -64 -22 -69 -3 -5 -6 -23 -8 -40 -1
-17 -7 -32 -13 -34 -6 -2 -9 -7 -7 -11 6 -9 -17 -99 -32 -126 -6 -11 -23 -66
-37 -122 -15 -55 -33 -113 -41 -128 -8 -15 -14 -40 -14 -56 0 -16 -4 -29 -10
-29 -5 0 -10 -15 -10 -34 0 -19 -4 -37 -8 -40 -5 -3 -15 -30 -22 -61 -7 -30
-17 -55 -23 -55 -5 0 -6 -7 -3 -16 4 -9 0 -26 -7 -38 -7 -12 -14 -34 -15 -50
-1 -16 -6 -34 -12 -41 -5 -6 -12 -25 -14 -41 -2 -16 -8 -42 -15 -57 -6 -16
-16 -48 -22 -73 -6 -24 -14 -44 -18 -44 -4 0 -7 -16 -8 -36 -1 -20 -5 -39 -10
-43 -4 -3 -9 -17 -11 -31 -1 -14 -5 -32 -9 -40 -3 -8 -7 -19 -7 -25 -1 -5 -7
-21 -13 -35 -6 -14 -21 -61 -33 -105 -13 -44 -26 -85 -31 -90 -4 -6 -9 -23
-11 -37 -2 -15 -7 -30 -11 -34 -4 -4 -7 -20 -7 -36 0 -15 -4 -36 -9 -46 -5 -9
-15 -37 -22 -62 -7 -25 -16 -49 -21 -54 -4 -6 -8 -23 -8 -38 0 -15 -4 -28 -10
-28 -5 0 -10 -13 -10 -28 0 -15 -4 -32 -9 -37 -5 -6 -15 -37 -24 -70 -35 -140
-60 -220 -70 -226 -5 -4 -7 -14 -4 -23 3 -8 2 -18 -4 -22 -6 -3 -8 -12 -5 -19
2 -7 -1 -18 -7 -24 -6 -6 -7 -11 -1 -11 5 0 4 -4 -2 -8 -7 -4 -13 -20 -15 -37
-2 -16 -8 -37 -14 -45 -6 -8 -12 -28 -14 -45 -2 -16 -7 -38 -12 -47 -5 -9 -9
-26 -9 -37 0 -12 -5 -21 -11 -21 -5 0 -7 -4 -4 -10 3 -5 -1 -24 -9 -42 -8 -18
-17 -44 -20 -58 -2 -14 -9 -38 -15 -53 -6 -16 -9 -32 -6 -37 3 -5 1 -11 -5
-15 -5 -3 -10 -15 -10 -26 0 -10 -4 -19 -10 -19 -5 0 -10 -13 -10 -30 0 -16
-4 -30 -10 -30 -5 0 -10 -18 -10 -40 0 -22 -4 -40 -10 -40 -5 0 -10 -13 -10
-29 0 -17 -4 -32 -9 -35 -5 -4 -12 -24 -16 -46 -7 -43 -20 -52 -30 -20 -3 10
-24 52 -47 92 -22 40 -55 100 -72 133 -18 33 -43 80 -57 105 -14 25 -48 86
-74 135 -27 50 -57 106 -68 125 -32 57 -61 110 -109 200 -109 204 -156 291
-195 360 -11 19 -41 76 -68 125 -26 50 -59 110 -73 135 -13 25 -83 153 -154
285 -72 132 -144 265 -161 295 -32 60 -75 139 -130 240 -40 74 -70 129 -154
285 -33 61 -80 146 -103 190 -24 44 -61 112 -82 150 -60 107 -188 371 -188
387 0 8 -4 18 -9 24 -24 26 -63 178 -64 251 -2 181 96 268 387 343 l151 39 -4
73 c-2 40 -5 75 -6 77 -4 3 -321 -24 -985 -84 -212 -19 -533 -49 -715 -65
-181 -16 -358 -33 -391 -36 l-62 -7 5 -61 c3 -33 10 -66 17 -73 6 -6 67 -18
136 -27 144 -18 156 -20 224 -42 70 -23 122 -50 181 -93 28 -21 104 -66 170
-100 66 -35 127 -69 136 -77 8 -8 19 -14 23 -14 7 0 62 -37 84 -57 7 -7 18
-13 24 -13 6 0 32 -18 58 -40 26 -22 51 -40 54 -40 9 0 163 -127 241 -199 142
-130 185 -172 270 -267 138 -153 201 -232 306 -384 102 -148 245 -405 283
-509 7 -20 31 -85 54 -146 51 -140 82 -242 82 -271 0 -13 5 -26 10 -29 6 -3
10 -21 10 -39 0 -17 4 -36 8 -41 11 -12 29 -129 42 -260 5 -55 14 -145 21
-200 10 -96 7 -360 -7 -485 -9 -85 -5 -117 20 -163 13 -23 44 -80 68 -127 76
-142 110 -205 118 -215 4 -5 36 -64 70 -130 35 -66 72 -136 83 -155 11 -19 32
-57 47 -85 15 -27 46 -86 70 -130 24 -44 108 -198 187 -343 78 -145 143 -265
143 -268 0 -3 9 -19 21 -35 22 -31 43 -35 133 -23 l46 7 31 101 c16 55 34 112
38 126 5 14 20 63 34 110 83 270 113 369 182 595 100 331 97 320 145 480 23
77 65 212 92 300 132 428 181 588 232 765 19 63 48 158 64 210 17 52 35 111
40 130 6 19 35 116 65 215 30 99 72 234 91 300 66 216 106 349 121 395 7 25
30 99 50 165 20 66 47 154 60 195 12 41 35 116 49 165 15 50 33 108 41 130 7
22 23 74 35 115 12 41 30 102 41 134 25 80 25 116 -1 116 -23 0 -53 41 -45 62
11 29 196 38 296 14 66 -15 139 -55 168 -92 20 -26 41 -77 59 -149 29 -110 33
-156 126 -1180 20 -214 49 -538 66 -720 17 -181 44 -483 60 -670 16 -187 34
-378 39 -425 6 -47 13 -110 15 -140 7 -63 8 -265 3 -325 -6 -64 -82 -175 -119
-175 -11 0 -17 -4 -14 -8 3 -5 -10 -15 -29 -22 -19 -8 -35 -17 -35 -21 0 -4
-21 -10 -47 -14 -27 -4 -51 -11 -54 -16 -3 -6 -48 -15 -100 -20 -52 -6 -109
-13 -128 -16 l-33 -4 7 -62 c3 -34 9 -64 11 -66 2 -3 62 0 132 7 70 6 255 22
412 36 157 14 355 32 440 41 85 8 281 27 435 40 682 60 849 75 995 90 85 8
283 26 440 40 157 14 314 29 349 33 l65 7 17 75 c9 41 26 111 37 155 12 44 35
141 52 215 18 74 61 249 96 388 35 139 64 260 64 269 0 14 -10 15 -72 9 -40
-4 -75 -10 -79 -14 -3 -4 -17 -38 -30 -77 -13 -38 -26 -72 -29 -75 -8 -8 -30
-44 -36 -60 -3 -8 -13 -28 -22 -45 -9 -16 -16 -32 -15 -35 1 -13 -20 -60 -28
-60 -5 0 -9 -7 -9 -15 0 -8 -4 -15 -9 -15 -5 0 -11 -10 -15 -23 -3 -12 -14
-32 -26 -44 -11 -12 -20 -27 -20 -32 0 -6 -13 -26 -30 -44 -16 -19 -30 -37
-30 -41 0 -8 -26 -40 -82 -99 -27 -28 -48 -54 -48 -59 0 -4 -6 -8 -14 -8 -8 0
-16 -4 -18 -9 -5 -13 -180 -111 -198 -111 -9 0 -20 -3 -24 -7 -12 -12 -99 -32
-141 -33 -22 0 -65 -7 -95 -16 -30 -9 -192 -29 -360 -44 -168 -16 -375 -36
-461 -44 -92 -9 -192 -13 -242 -9 -78 5 -89 9 -133 42 -75 57 -90 121 -129
571 -29 338 -68 767 -91 1011 -9 97 -15 183 -12 191 6 15 44 19 607 69 190 16
392 30 450 30 178 2 295 -37 388 -128 40 -39 55 -64 82 -138 18 -50 38 -116
44 -147 7 -32 15 -58 19 -58 5 0 8 -15 8 -32 0 -18 3 -44 7 -57 6 -22 9 -23
67 -17 33 3 64 10 69 15 7 7 -12 263 -48 636 -34 350 -66 723 -65 760 4 96 5
95 -44 95 -24 0 -57 -3 -73 -6 l-30 -6 -7 -141 c-4 -78 -12 -143 -17 -145 -5
-2 -9 -21 -9 -43 0 -21 -4 -39 -9 -39 -5 0 -12 -13 -16 -29 -3 -15 -25 -55
-49 -88 -44 -60 -83 -93 -111 -93 -8 0 -15 -4 -15 -9 0 -11 -55 -31 -86 -31
-13 0 -24 -4 -24 -8 0 -14 -130 -31 -510 -67 -485 -45 -577 -54 -620 -61 l-36
-5 -17 183 c-16 169 -29 306 -106 1158 -15 168 -24 309 -20 314 4 4 151 21
326 37 175 15 444 40 598 54 285 26 496 33 595 20 145 -19 288 -129 355 -272
47 -101 51 -110 66 -158 7 -22 16 -44 20 -50 4 -5 10 -32 14 -60 12 -84 16
-86 93 -79 37 4 70 9 73 13 4 3 3 29 -1 56 -18 107 -33 211 -51 350 -8 65 -29
207 -49 335 -4 30 -9 86 -9 123 -1 49 -5 69 -15 73 -14 5 -181 -8 -926 -76
-322 -30 -849 -77 -1435 -131 -181 -16 -359 -32 -395 -35 -36 -3 -74 -9 -85
-14 -11 -5 -50 -11 -87 -14 l-68 -5 26 52 c110 218 253 347 469 422 44 15 83
31 88 34 4 4 4 40 1 79 l-7 72 -46 -1 c-25 -1 -129 -10 -231 -19z"/>
<path d="M13490 15183 c-259 -20 -337 -31 -520 -75 -432 -102 -806 -310 -1144
-638 -554 -537 -836 -1187 -850 -1959 -9 -553 137 -1072 434 -1541 342 -541
903 -1036 1455 -1283 148 -66 403 -150 551 -181 165 -35 383 -56 566 -56 627
1 1172 197 1658 599 98 81 300 284 384 386 295 357 468 725 556 1175 53 276
61 671 19 955 -65 438 -213 819 -465 1200 -191 288 -475 594 -759 816 -497
389 -1066 594 -1671 602 -99 1 -195 1 -214 0z m-140 -559 c324 -61 625 -192
975 -427 95 -64 115 -79 265 -196 314 -247 723 -661 957 -967 333 -438 515
-833 554 -1204 16 -157 7 -416 -20 -547 -125 -605 -622 -1127 -1190 -1249
-135 -29 -164 -33 -278 -33 -520 -3 -1089 236 -1655 695 -294 238 -624 579
-862 889 -85 110 -246 347 -246 361 0 3 -9 18 -19 33 -28 39 -135 255 -172
346 -105 264 -150 468 -156 715 -8 268 30 453 136 675 153 320 454 621 786
784 199 98 333 136 528 149 148 10 244 4 397 -24z"/>
<path d="M12755 11528 c-4 -13 -8 -25 -10 -28 -10 -24 -35 -106 -35 -117 0 -6
-8 -28 -17 -49 -9 -22 -17 -41 -18 -44 -1 -3 -9 -22 -18 -44 -9 -21 -17 -43
-17 -48 0 -5 -9 -28 -20 -50 -11 -23 -20 -43 -20 -45 0 -2 32 -35 71 -73 72
-71 108 -87 110 -50 1 11 2 23 3 28 1 4 6 23 10 42 4 19 16 73 26 120 62 277
71 321 68 336 -2 12 -16 18 -48 21 -25 2 -49 9 -54 14 -15 14 -23 11 -31 -13z"/>
<path d="M10590 14665 c-80 -8 -190 -18 -245 -25 -55 -6 -253 -24 -440 -41
-577 -50 -985 -87 -1104 -100 l-113 -12 4 -69 c3 -38 8 -71 10 -74 3 -2 45 0
94 6 182 21 278 10 389 -45 69 -33 118 -89 139 -156 10 -30 21 -62 27 -71 5
-10 9 -29 9 -42 0 -14 5 -37 11 -53 6 -15 15 -62 19 -103 5 -41 15 -138 24
-215 9 -77 32 -315 52 -530 19 -214 48 -534 64 -710 16 -176 43 -475 59 -665
17 -190 35 -383 41 -430 13 -111 50 -579 48 -605 -1 -11 2 -64 6 -117 6 -68 5
-98 -3 -98 -7 0 -7 -8 0 -26 5 -15 6 -36 2 -48 -4 -11 -8 -30 -10 -41 -9 -66
-16 -95 -24 -95 -5 0 -9 -6 -9 -14 0 -20 -57 -88 -93 -111 -18 -10 -35 -25
-40 -31 -4 -7 -22 -16 -39 -19 -18 -4 -39 -11 -48 -16 -28 -15 -154 -38 -244
-45 l-89 -6 7 -66 c4 -36 9 -68 11 -71 2 -4 648 52 1437 124 1034 94 1433 133
1433 142 0 21 -290 307 -293 289 -2 -9 -9 -16 -15 -16 -18 -1 -553 -48 -725
-65 -192 -18 -386 -14 -433 10 -116 59 -147 156 -184 568 -14 150 -36 394 -50
542 -27 297 -53 580 -90 990 -71 793 -87 967 -105 1154 -25 254 -26 466 -4
542 20 67 70 137 126 175 24 16 45 31 48 35 12 12 101 49 158 63 71 19 200 41
290 51 l63 7 -3 71 c-2 39 -7 71 -13 72 -5 1 -75 -3 -155 -10z"/>
</g>
</svg>
